<svg width="25" height="25" viewBox="0 0 25 25" fill="none" xmlns="http://www.w3.org/2000/svg">
<path d="M10.485 0.679896C11.6489 -0.226632 13.3511 -0.226632 14.515 0.679896L23.89 7.98154C24.5939 8.5297 25 9.33652 25 10.1866V22.7561C25 23.9954 23.9118 25 22.5694 25H18.4028C17.0604 25 15.9722 23.9954 15.9722 22.7561V16.345C15.9722 15.8139 15.5058 15.3834 14.9306 15.3834H10.0694C9.49415 15.3834 9.02778 15.8139 9.02778 16.345V22.7561C9.02778 23.9954 7.93958 25 6.59722 25H2.43056C1.08819 25 0 23.9954 0 22.7561V10.1866C0 9.33652 0.406125 8.5297 1.10994 7.98154L10.485 0.679896Z" fill="#64BE43"/>
</svg>
