<svg width="30" height="30" viewBox="0 0 30 30" fill="none" xmlns="http://www.w3.org/2000/svg">
<path d="M19.606 15.0962C18.3703 13.7553 16.7325 13.0079 15.0286 13.0079C13.3254 13.0079 11.6874 13.7553 10.4518 15.0962L5.73018 20.0638C4.74408 21.1372 4.17956 22.6201 4.16534 24.1761C4.15047 25.7322 4.68717 27.2291 5.65324 28.3262C6.6193 29.4225 7.93203 30.0264 9.29308 29.9991C11.3501 29.9991 12.9285 28.8067 15.0869 28.8237C17.2453 28.8399 18.9254 29.8505 20.8807 29.9828C22.2399 30.0028 23.548 29.3929 24.507 28.2922C25.4666 27.1922 25.9949 25.6939 25.9723 24.1406C25.949 22.5867 25.3767 21.1104 24.3861 20.0474L19.606 15.0962Z" fill="#64BE43"/>
<path d="M27.2818 7.23139C22.6758 6.00574 20.0395 17.1666 25.0657 18.6902C29.9756 19.7665 32.1049 8.47339 27.2818 7.23139Z" fill="#64BE43"/>
<path d="M15.0285 5.27647C14.0871 -2.45656 6.54094 -1.34703 6.5118 6.36904C6.4827 14.085 14.0871 15.1948 15.0285 7.46162C15.9843 15.1946 23.5311 14.0851 23.5453 6.36904C23.5602 -1.34695 15.97 -2.45667 15.0285 5.27647Z" fill="#64BE43"/>
<path d="M5.0053 18.6899C7.06227 18.1599 8.17766 15.2459 7.55424 12.0664C6.75759 7.09881 1.93441 5.19465 0.311971 9.93007C-0.904995 13.4407 1.60136 19.617 5.0053 18.6899Z" fill="#64BE43"/>
</svg>
