<svg width="30" height="30" viewBox="0 0 30 30" fill="none" xmlns="http://www.w3.org/2000/svg">
<path d="M16.0246 6.9739L14.9987 8.00204L13.9696 6.97298C11.3458 4.34914 7.09171 4.34914 4.46788 6.97298C2.63429 8.80655 2.08206 11.4363 2.81114 13.7494H7.18632L8.96002 10.0012C9.31539 9.25021 10.0655 8.76538 10.8962 8.74978C11.7269 8.73418 12.4947 9.19053 12.8781 9.92764L15.3529 14.6868L17.3248 12.1081C17.7233 11.587 18.3347 11.2722 18.9903 11.2506C19.6459 11.2289 20.2768 11.5027 20.7088 11.9964L22.2426 13.7494H27.1921C27.9228 11.4356 27.3732 8.80913 25.5379 6.9739C22.9093 4.34529 18.6532 4.34529 16.0246 6.9739Z" fill="#64BE43"/>
<path d="M14.3377 26.3438L6.11816 18.1243H8.57185C9.4175 18.1243 10.1874 17.637 10.5491 16.8726L11.0303 15.8557L13.0598 19.7586C13.4051 20.4225 14.0658 20.8638 14.8113 20.9286C15.5568 20.9935 16.2837 20.6726 16.7383 20.0782L19.1771 16.889L19.6043 17.3773C20.0197 17.8521 20.6198 18.1243 21.2506 18.1243H23.8879L15.6636 26.3438C15.2974 26.71 14.7038 26.71 14.3377 26.3438Z" fill="#64BE43"/>
<path d="M11.776 10.5176C11.6156 10.1967 11.2861 9.99556 10.9274 9.99944C10.5686 10.0033 10.2436 10.2116 10.0901 10.5359L7.9779 14.9994H3.4375C2.91974 14.9994 2.5 15.4191 2.5 15.9369C2.5 16.4546 2.91974 16.8744 3.4375 16.8744H8.57142C8.93385 16.8744 9.26381 16.6655 9.41884 16.3379L10.9607 13.0796L14.1615 19.4811C14.3081 19.7745 14.5974 19.9699 14.9242 19.9964C15.2511 20.0229 15.568 19.8766 15.76 19.6107L19.1327 14.9409L20.5445 16.5542C20.7225 16.7577 20.9796 16.8744 21.25 16.8744H26.5625C27.0802 16.8744 27.5 16.4546 27.5 15.9369C27.5 15.4191 27.0802 14.9994 26.5625 14.9994H21.6754L19.768 12.8195C19.58 12.6046 19.3041 12.4871 19.0187 12.5004C18.7334 12.5137 18.4698 12.6564 18.3025 12.888L15.1462 17.2581L11.776 10.5176Z" fill="#64BE43"/>
</svg>
