<svg width="100" height="100" viewBox="0 0 100 100" fill="none" xmlns="http://www.w3.org/2000/svg">
<path d="M99.1953 11.9341C98.1405 11.6359 94.8714 10.2957 94.555 10.1471C94.2387 9.84894 93.606 9.5518 93.3949 7.9134C93.1838 6.27497 93.2897 4.63664 91.6022 2.99827C89.8095 1.21127 89.071 1.35984 88.5443 0.764542C87.0679 0.0196121 84.9589 -0.278568 82.85 0.317791C80.635 0.913112 80.0024 2.40294 78.8424 3.29639C77.6823 4.18989 75.9948 7.61522 75.0459 8.95651C74.0969 10.2968 70.3005 17.1487 68.6129 18.3402C67.0314 19.5319 63.6564 21.617 62.0747 21.7656C60.4932 22.0638 58.9108 22.2124 57.6455 23.4041C56.3802 24.4472 55.4305 25.3406 51.9511 25.7874C48.471 26.2341 40.0342 25.6388 38.4525 25.3406C36.9761 25.0425 33.496 24.149 31.2817 24.7453C28.9617 25.4903 28.0127 26.0856 27.1689 25.6388C26.3251 25.1921 24.111 24.7453 22.6346 24.8939C21.1582 25.0425 18.1002 26.8305 16.8342 27.1276C15.5689 27.4258 12.7213 26.8294 11.0338 25.6378C9.55743 24.5947 4.81197 21.9142 3.54591 21.4674C2.28064 21.1692 1.12056 20.872 0.488003 21.4674C-0.039438 21.9141 -0.460951 24.1478 1.01544 26.2341C2.49182 28.1707 6.07724 32.9363 7.3433 34.1281C8.60857 35.3197 11.3509 37.5535 13.7762 37.5535C16.3074 37.7021 18.2055 36.9582 18.9439 36.66C19.6824 36.3618 20.4202 35.9151 20.3151 36.2132C20.2099 36.5114 19.0498 43.5117 18.2061 46.0438C17.3623 48.4271 15.6749 57.2145 15.0421 60.7894C14.4094 64.3643 13.4606 69.7266 12.1946 71.0668C10.9293 72.407 9.66341 73.0034 8.71448 76.8756C7.65813 80.597 7.02476 90.4276 6.60325 91.7678C6.07581 93.108 5.97061 95.4914 6.49806 96.2364C7.0255 96.9813 7.65813 97.428 8.18556 97.428C8.81819 97.5766 9.13451 97.7262 9.66193 97.7262C10.1894 97.7262 10.822 97.8748 11.4546 97.428C11.9821 96.9813 12.5095 96.2364 12.2984 95.641C12.0873 94.8961 10.7168 94.1512 10.6109 92.2156C10.3998 90.279 11.3494 84.3216 11.6658 83.4282C11.9821 82.5347 13.1421 79.2578 13.9858 78.0662C14.8296 76.8746 15.4622 74.9379 16.0948 74.4913C16.7274 74.0446 21.8952 67.7892 21.8952 67.7892C21.8952 67.7892 17.8876 78.0665 18.2038 81.1935C18.5201 84.3219 19.4691 88.0455 19.6802 88.9389C19.9965 89.982 20.2076 92.3643 21.684 92.6624C23.1604 92.9606 25.3755 92.9606 26.1133 92.6624C26.8518 92.3643 27.3786 90.1305 26.7459 89.3857C26.1133 88.4922 24.5309 88.3426 23.8984 88.3426C23.2657 88.194 22.9494 88.0444 22.7383 85.0658C22.5272 82.2356 22.2108 79.5552 22.6331 78.512C23.0546 77.4689 24.531 74.0435 25.2695 73.4482C26.0081 72.8529 29.9099 68.9797 32.0189 65.7029C34.1278 62.4262 35.6042 59.7457 35.8153 59.4473C36.0265 59.1491 37.1865 56.0219 38.4518 56.3189C39.7171 56.7657 43.9358 58.4041 43.9358 58.4041C44.5684 58.5527 47.4159 59.4472 49.2087 61.3827C51.0014 63.4679 54.0602 64.511 57.0128 64.9576C60.0707 65.4044 62.1804 65.5529 62.1804 65.5529C62.1804 65.5529 64.0783 67.9363 64.2894 70.7665C64.5005 73.5967 64.922 76.1284 64.922 77.6184C64.922 78.8101 65.1331 81.7888 65.2383 82.5335C65.3435 83.2783 65.4495 88.6405 65.5547 89.3855C65.6599 89.9808 65.7658 92.9604 65.9762 93.854C66.0814 94.7475 67.0311 98.0245 67.3474 98.6208C67.6637 99.2161 69.14 99.8124 70.1949 99.961C71.1439 100.11 72.0928 99.8124 72.515 99.5143C72.8313 99.2161 73.0424 98.0244 73.0424 97.5777C72.9372 97.1309 72.515 96.6842 72.515 96.6842C72.515 96.6842 73.8862 97.2795 75.0462 97.2795C76.101 97.2795 77.1551 96.9813 77.3662 96.6842C77.6826 96.2374 78.4211 94.7476 77.3662 93.4074C76.4173 92.2157 75.4684 92.0672 74.6245 92.2157C73.7807 92.3643 72.4095 89.8324 72.4095 88.0453C72.4095 86.4069 72.7258 81.4915 72.831 80.4495C72.9362 79.4064 73.5696 72.7042 74.4126 68.5337C75.2564 64.3633 74.6237 64.3633 76.3105 61.8316C77.892 59.2997 82.0048 51.8524 82.2159 47.5325C82.4271 43.362 82.1107 39.7871 83.376 36.3617C84.6413 32.9363 86.4339 26.6809 86.645 26.2341C86.8561 25.7873 87.3836 21.9153 87.6999 21.9153C88.0162 21.9153 93.1839 23.2555 94.6603 22.8088C96.1367 22.362 97.2968 21.0218 97.8242 20.8722C98.5628 20.7236 99.1954 19.2338 99.4058 17.5954C99.7221 15.8084 99.7221 15.6589 99.8273 14.0205C100.038 13.4231 100.25 12.0829 99.1947 11.9343L99.1953 11.9341Z" fill="#121212"/>
</svg>
