<svg width="100" height="100" viewBox="0 0 100 100" fill="none" xmlns="http://www.w3.org/2000/svg">
<path d="M30.4136 56.5231C29.1156 56.5231 27.601 56.1024 25.7621 54.8388L29.0078 57.9967C29.0078 57.9967 31.1713 61.4701 34.417 64.628C37.3374 67.4702 40.7989 69.9959 45.6677 69.9959C46.2088 69.9959 46.8578 69.9959 47.3988 69.8909C53.1326 69.1538 55.2961 62.8388 54.9715 61.786C54.647 60.7331 53.5649 47.366 53.5649 44.9446C53.5649 42.5238 57.5675 39.9975 58.2164 33.3659C58.9741 26.7346 54.2138 18.6304 54.2138 18.6304C43.3954 3.57906 28.5742 10.1048 22.4077 5.684C17.2151 1.99964 7.9113 0.000518799 7.9113 0.000518799C0.338625 1.68479 -1.06796 14.4205 0.662985 22.6307C1.20406 25.3672 2.82647 27.8935 4.98995 29.6829C5.74761 30.3143 6.39657 29.2622 6.93688 31.2614C10.5069 44.2078 15.5918 42.1029 18.5129 44.945C21.1095 47.4714 26.6267 52.5235 30.089 52.5235C30.5214 52.5235 30.8466 52.4185 31.1711 52.3128C34.4169 50.9442 29.3321 36.84 29.3321 32.6298C29.3321 28.4199 32.5778 25.9984 32.5778 25.9984L31.8202 29.4719C31.1712 32.5239 35.1737 45.9976 35.4982 51.4705C35.6061 52.6284 35.1737 53.8912 34.3082 54.7333C33.5505 55.6812 32.2525 56.5233 30.4135 56.5233L30.4136 56.5231ZM47.3981 63.0495C48.8047 61.9967 52.2662 62.2074 52.2662 62.2074C52.2662 62.2074 53.6728 63.2603 51.9417 64.8388C50.3192 66.4174 47.2902 67.4702 45.9914 66.4174C44.6934 65.4702 46.1 64.1017 47.398 63.0495L47.3981 63.0495ZM39.6088 42.5245C41.2313 42.5245 45.018 40.6302 45.018 40.6302C45.018 40.6302 40.9069 45.3666 39.6088 45.3666C38.3108 45.3666 36.3631 43.4724 35.822 42.4194C35.2817 41.4723 37.9863 42.5244 39.6088 42.5244V42.5245Z" fill="#121212"/>
<path d="M99.7599 81.89C98.7865 77.785 97.0553 71.0486 96.5142 68.3123C95.1076 61.7866 80.9356 56.7337 63.7345 56.7337C61.4623 56.7337 59.1908 56.8387 57.1353 56.9444C57.3519 58.9445 57.4598 60.5229 57.5677 61.0494C57.5677 61.1544 57.6756 61.3651 57.6756 61.5758C59.6225 61.4708 61.6782 61.3651 63.7337 61.3651C71.8475 61.3651 79.6367 62.628 85.2623 64.7337C90.2392 66.628 91.8615 68.7336 91.8615 69.3652C91.8615 69.9967 90.2391 72.1017 85.2623 73.9967C79.6366 76.1016 71.8473 77.3653 63.7337 77.3653C55.6207 77.3645 47.8315 76.1009 42.2051 73.9959C37.2283 72.1017 35.6059 69.996 35.6059 69.3644V69.1537C34.4158 68.3116 33.4424 67.3644 32.469 66.5223L31.9279 65.9959C31.2789 66.943 30.8457 67.9959 30.7378 69.0479L27.1678 79.4693C26.5188 81.89 27.1677 84.5214 28.8989 86.4164L30.3055 87.89C30.3055 87.89 30.8466 84.4165 34.957 84.9428C39.0682 85.4692 43.6119 92.6263 44.6932 97.0469C44.6932 97.0469 76.0665 106.415 96.0805 91.7841C99.1097 89.4684 100.624 85.5741 99.7594 81.8898L99.7599 81.89Z" fill="#121212"/>
<path d="M58.6508 71.9959C53.2416 73.5744 55.7297 74.838 55.7297 74.838C55.7297 74.838 62.7612 75.5752 64.3846 75.0487C64.3846 75.0487 64.0601 70.4172 58.6508 71.9959V71.9959Z" fill="#121212"/>
<path d="M67.3043 71.9958C66.4388 72.2065 66.3308 74.4165 67.4122 74.8379C67.4122 74.8379 71.3069 74.7329 73.5791 74.1008C73.5791 74.1008 75.526 70.9429 74.2281 70.4164C72.9302 69.8899 70.8746 69.5742 69.9011 70.1007C68.819 70.6278 68.1693 71.8907 67.3045 71.9957L67.3043 71.9958Z" fill="#121212"/>
<path d="M63.7343 65.6805C62.4363 65.2598 61.5708 67.259 61.0297 67.9961C60.4886 68.7333 61.4621 69.9962 61.4621 69.9962C61.4621 69.9962 62.6521 70.1012 63.7343 70.7333C64.8165 71.2598 66.5469 70.3126 66.5469 70.3126C68.3859 69.2598 67.6291 67.997 67.5204 66.944C67.4125 65.9962 65.0324 66.1012 63.7343 65.6805L63.7343 65.6805Z" fill="#121212"/>
<path d="M70.1175 68.2066L72.9301 68.733C73.7956 68.9438 74.4446 68.1016 74.1201 67.2595C73.7956 66.6281 73.4711 65.9966 72.9301 65.7859C71.74 65.4702 67.954 67.2595 70.1175 68.2066V68.2066Z" fill="#121212"/>
<path d="M78.9872 73.2589C79.8527 73.0482 83.4229 72.4167 83.6387 71.7853C83.8553 71.1539 83.2063 69.7853 82.1241 69.5746C81.042 69.3638 79.6361 68.5217 78.9872 68.206C78.7706 68.101 78.5548 68.101 78.2296 67.9953C77.4719 67.9953 76.8229 68.416 76.715 69.0481C76.3905 69.9953 76.066 71.4689 76.174 71.9953C76.3913 72.8375 78.2304 73.4689 78.9871 73.2589L78.9872 73.2589Z" fill="#121212"/>
<path d="M56.4855 17.2624L56.5934 17.4731C56.7013 17.6839 58.6491 21.1575 59.9469 25.4725C60.5959 24.946 61.6781 24.5253 62.7595 25.6832L63.3006 26.5253C63.3006 26.5253 62.2185 28.946 63.3006 34.2089C64.3827 39.4717 67.0874 44.2081 68.4932 40.5246C69.8999 36.8403 68.4932 32.6304 69.0343 24.9468C69.5754 17.4732 60.8125 8.63188 51.6167 12.0005C53.3478 13.3683 54.971 15.1576 56.4856 17.2625L56.4855 17.2624Z" fill="#121212"/>
<path d="M55.4044 67.6803C54.4309 68.9432 53.3487 69.996 52.1587 70.8382C52.5911 71.7853 53.3488 72.8383 53.3488 72.8383C54.7554 71.6804 58.2169 70.8382 58.2169 70.8382C59.4069 69.2597 56.7023 68.1017 55.4043 67.6803H55.4044Z" fill="#121212"/>
<path d="M47.6154 72.4169C46.8577 72.5219 46.2088 72.5219 45.5597 72.5219H45.1273L44.3696 72.7326C44.3696 72.7326 48.9133 74.3111 52.2669 74.6268C52.2669 74.6268 50.9689 72.8376 50.4278 71.7847C49.563 72.1012 48.5888 72.3112 47.6152 72.4169H47.6154Z" fill="#121212"/>
</svg>
