<svg width="41" height="42" viewBox="0 0 41 42" fill="none" xmlns="http://www.w3.org/2000/svg">
<path d="M32.4738 1.30198C32.0557 2.53341 31.6785 3.8316 31.4428 4.84418C31.405 5.01851 31.3768 5.07786 31.3359 5.07786C31.3045 5.07786 31.1819 5.13721 31.0593 5.20768C30.7858 5.37088 30.5029 5.71583 30.0974 6.37976C29.5033 7.35155 29.0978 7.96726 28.8086 8.34188C28.642 8.55701 28.2679 9.05774 27.9725 9.45462C27.4601 10.1519 27.4129 10.2076 26.6931 10.8826C26.2813 11.2721 25.8381 11.706 25.7029 11.847C25.3415 12.2402 24.7976 12.5777 23.8703 12.9783C22.1541 13.7201 19.4382 14.4619 17.5521 14.6993C17.329 14.729 16.7977 14.8032 16.3734 14.8662C15.949 14.9293 14.8174 15.0813 13.8587 15.2037C10.0332 15.6933 8.3483 16.0049 7.70077 16.3387C7.51216 16.4389 7.19154 16.4537 6.61315 16.3907C6.05677 16.3313 6.03163 16.3165 5.27093 15.5784L4.9503 15.2668L4.63911 15.2928C4.17074 15.3299 4.04815 15.4152 4.001 15.7453C3.96956 15.9789 4.04815 16.1162 4.46936 16.565C4.82457 16.9433 4.96287 17.151 4.96287 17.2957C4.96287 17.3624 4.99117 17.5405 5.02574 17.6926C5.1169 18.0931 5.14205 18.4974 5.07918 18.6384C5.05403 18.6977 4.90629 18.9129 4.75541 19.1132C4.52594 19.4173 4.44736 19.5545 4.29333 19.9292C4.01672 20.6005 4.01357 20.6228 3.99785 21.8727C3.97899 23.0708 3.99471 23.3119 4.15502 24.2911C4.24618 24.8437 4.25561 24.9698 4.25561 25.6078C4.25561 26.1123 4.2399 26.4238 4.19903 26.7057C4.11416 27.3103 3.93499 28.2005 3.85326 28.4416C3.67094 28.9757 3.13657 29.7064 2.56761 30.1923C2.39473 30.3444 2.10868 30.6188 1.93265 30.8006C1.75976 30.986 1.45171 31.3013 1.25368 31.5053C0.675295 32.0951 0.310662 32.4993 0.250937 32.618C0.147206 32.8295 0.0874812 33.1002 0.0686209 33.4526C0.0466172 33.8866 0.0843378 34.2315 0.266654 35.3071C0.426967 36.253 0.436397 36.3605 0.502408 38.9977L0.540129 40.5185L0.628144 40.7447C0.735019 41.0155 0.99592 41.3196 1.22853 41.4457C1.56173 41.6238 1.78177 41.6609 2.51732 41.6646C3.15857 41.6683 3.20258 41.6646 3.28745 41.5904C3.41318 41.4791 3.45719 41.353 3.47605 41.0266C3.49177 40.7855 3.50749 40.7225 3.58293 40.6149C3.68666 40.4628 3.68037 40.448 3.43833 40.2551C3.09256 39.9881 2.60848 39.3835 2.40101 38.9643C2.18726 38.5341 2.10868 37.9555 2.16212 37.2099C2.21241 36.52 2.43559 35.0067 2.52675 34.7471C2.71535 34.1944 3.20572 33.5453 3.88469 32.9444C4.0953 32.759 4.70197 32.262 5.23635 31.8428C5.76758 31.4237 6.34597 30.9489 6.51885 30.7857C6.72632 30.5892 6.9495 30.4222 7.17896 30.2887C7.83279 29.9141 8.24457 29.5766 8.74751 29.0017C9.25674 28.423 9.64023 27.8444 10.3946 26.5091L10.7467 25.886L10.9919 25.7413C11.1239 25.6634 11.3754 25.5373 11.5451 25.4594L11.8595 25.3222L12.0606 25.4038C12.1738 25.4446 12.4127 25.5559 12.595 25.6523C13.0288 25.8749 13.1231 25.8897 13.2614 25.7525C13.3589 25.656 13.6072 25.1108 13.6072 24.9958C13.6072 24.9216 16.0747 24.9698 16.3577 25.0477C17.0366 25.2332 17.6496 25.5633 18.8378 26.383C20.1674 27.2955 20.9187 27.6701 21.9372 27.926C22.2421 28.0039 22.3207 28.0076 23.0059 27.9928L23.7446 27.9705L23.9018 28.0632C23.9867 28.1152 24.0621 28.1597 24.0652 28.1634C24.0684 28.1671 24.1533 28.7309 24.2507 29.4134L24.4299 30.6522V31.5795C24.4299 32.0876 24.4047 33.0223 24.3733 33.6566C24.3041 35.0512 24.2947 36.8835 24.3513 37.3843C24.4267 38.0371 24.5462 38.4636 24.7191 38.6824C24.7851 38.7678 24.7945 38.816 24.8039 39.2203C24.8134 39.6505 24.8165 39.6765 24.9517 40.0363C25.2974 40.9784 25.5961 41.353 26.0959 41.468C26.1965 41.4902 26.4825 41.4977 26.8408 41.4828C27.4224 41.4569 27.4224 41.4569 27.5167 41.353C27.5733 41.2937 27.7053 41.2158 27.8373 41.1676L28.0636 41.0897L27.7367 40.3107C27.5544 39.8842 27.4067 39.4984 27.4067 39.4502C27.4067 39.376 27.3186 39.2944 26.9226 38.9829C26.4542 38.6157 26.4354 38.5971 26.3599 38.3931C26.2059 37.9851 26.121 36.8687 26.1776 36.0082C26.2656 34.6692 26.4511 33.7122 27.1238 31.19C27.2935 30.5484 27.4632 29.8955 27.501 29.7435C27.5387 29.5914 27.6078 29.38 27.6518 29.2798C27.6959 29.176 27.9536 28.3785 28.2271 27.5032L28.7269 25.912L28.9721 25.6115C29.7768 24.6249 30.1005 23.8757 30.2734 22.6034C30.3174 22.2844 30.3772 21.9951 30.4557 21.7503C30.7858 20.7192 30.9398 19.8624 31.1159 18.0041C31.2573 16.5131 31.3233 16.042 31.4962 15.3558C31.6974 14.5546 31.8828 14.1355 32.5052 13.1118C32.895 12.4664 32.9264 12.4256 33.2942 12.0807C33.8726 11.5354 34.2058 11.3685 34.8031 11.3203C35.1583 11.2943 35.3249 11.3351 35.7272 11.5391C36.1107 11.7394 36.3119 11.7506 36.5979 11.5948C36.7677 11.502 36.8117 11.4946 37.1952 11.4946C37.8364 11.4946 38.6757 11.2832 39.1472 11.0013C39.5213 10.7825 39.9802 10.2743 39.9802 10.0852C39.9802 10.0369 40.0368 9.91084 40.1059 9.80327C40.282 9.53622 40.3448 9.22836 40.2631 9.0429C40.2191 8.94647 40.0682 8.86116 39.9425 8.86116C39.8733 8.86116 39.3484 8.60523 38.4557 8.14159L37.0789 7.41831L36.6105 6.53554C36.3559 6.04965 36.0918 5.58972 36.029 5.50812C35.8781 5.32637 35.6518 5.20026 35.3909 5.15575C35.2777 5.13721 35.0451 5.05931 34.8722 4.98513C34.4353 4.79597 34.1209 4.71437 33.7217 4.68469C33.4482 4.66615 33.3759 4.6476 33.3665 4.59938C33.1905 3.9132 33.1591 3.69807 33.1591 3.15654C33.1591 2.27377 33.1088 1.61354 33.0176 1.23893C32.939 0.916233 32.7944 0.552738 32.7504 0.552738C32.7378 0.552738 32.6121 0.89027 32.4738 1.30198Z" fill="#64BE43"/>
</svg>
