<svg width="101" height="100" viewBox="0 0 101 100" fill="none" xmlns="http://www.w3.org/2000/svg">
<path d="M57.1431 68.3116L55.0388 64.4316C54.1969 62.7856 52.3031 62.3157 50.9349 63.2556C49.4618 64.1963 49.0412 66.3123 49.8823 67.841L51.7761 71.2502C51.6711 71.4856 51.5654 71.6029 51.5654 71.9555L46.7253 94.6496C46.3047 96.7655 47.3566 98.8823 49.251 99.5877C51.2505 100.293 53.2498 98.9997 53.8812 96.8837L57.4587 84.0674L73.9797 86.4187L73.7691 95.4722C73.6641 97.5881 75.1373 99.5877 77.1367 99.7049C79.2411 99.9403 81.0299 98.2942 81.2406 95.9421L82.9244 77.1297L73.9797 68.1942L57.143 68.195L57.1431 68.3116Z" fill="#121212"/>
<path d="M100.602 67.7238L93.4474 58.3176L93.763 52.0861C93.868 50.6755 92.2899 49.852 91.343 50.91L77.5576 66.5483L84.5028 73.6032L87.8705 69.8404L91.5538 73.9559C93.1319 75.7192 95.6577 75.7192 97.2357 73.9559L100.603 70.1931C101.128 69.4878 101.128 68.4298 100.603 67.7236L100.602 67.7238Z" fill="#121212"/>
<path d="M73.1392 66.3128C73.3499 66.5482 73.7705 66.7827 74.0861 66.7827C74.5067 66.7827 74.823 66.5473 75.1386 66.1947C75.6649 65.6066 75.6649 64.5487 75.0337 63.9605L59.7759 48.6756C59.1447 49.499 58.3028 50.0863 57.4609 50.557L73.1392 66.3128Z" fill="#121212"/>
<path d="M58.4066 41.6221C58.0909 39.1526 55.9865 37.5066 53.7764 37.5066H45.358L38.3078 28.8064C36.3083 26.2198 33.3621 24.8091 30.3107 24.8091H22.3136C18.7361 24.8091 15.3685 26.8078 13.369 30.0998L1.89938 48.9121C0.846811 50.6754 0.636884 52.9095 1.68872 54.6735C2.6356 56.2022 4.00372 56.9076 5.37205 56.9076C6.74038 56.9076 8.21337 56.2023 9.05538 54.7917L14.9479 45.033V94.7671C14.9479 97.2366 16.526 99.4697 18.6312 99.9406C21.367 100.411 23.7876 98.0592 23.7876 95.0025L23.7868 65.1364C23.7868 64.5484 24.2074 64.1957 24.6287 64.1957H27.1544C27.6807 64.1957 27.9963 64.6656 27.9963 65.1364L27.9955 94.6477C27.9955 97.1171 29.5737 99.3502 31.6789 99.8212C34.4146 100.291 36.8352 97.9398 36.8352 94.883V41.9744L39.8864 45.7372C40.7283 46.7952 41.8859 47.3832 43.1483 47.3832H53.776C56.7224 47.3824 58.8275 44.6784 58.4062 41.621L58.4066 41.6221Z" fill="#121212"/>
<path d="M35.8871 11.0529C35.8871 17.1563 31.4589 22.1052 25.9955 22.1052C20.5331 22.1052 16.104 17.1565 16.104 11.0529C16.104 4.94869 20.5329 0.000686646 25.9955 0.000686646C31.4587 0.000686646 35.8871 4.94848 35.8871 11.0529Z" fill="#121212"/>
</svg>
