<svg width="342" height="40" viewBox="0 0 342 40" fill="none" xmlns="http://www.w3.org/2000/svg">
<path d="M45.7403 32.2275C44.1721 32.2275 42.7177 31.9273 41.3772 31.327C40.0619 30.7267 38.9364 29.8262 38.0005 28.6256L39.8596 24.6919L40.0493 24.2654L40.3528 24.5024C40.4034 24.7235 40.4666 24.9605 40.5425 25.2133C40.6184 25.466 40.8081 25.782 41.1116 26.1611C41.7439 26.7615 42.4648 27.267 43.2742 27.6777C44.0836 28.0569 44.9689 28.2464 45.93 28.2464C47.1947 28.2464 48.2317 27.8673 49.0411 27.109C49.8505 26.3507 50.2552 25.3239 50.2552 24.0284C50.2552 23.2701 50.1288 22.6066 49.8758 22.0379C49.6482 21.4692 49.1803 20.9005 48.472 20.3318C47.7638 19.7314 46.7268 19.0521 45.3609 18.2938C42.9074 16.9984 41.2001 15.6398 40.239 14.218C39.3031 12.7962 38.8352 11.1216 38.8352 9.19431C38.8352 7.77251 39.1513 6.49289 39.7837 5.35545C40.416 4.21801 41.2887 3.33333 42.4016 2.70142C43.5145 2.03791 44.8045 1.70616 46.2715 1.70616C49.1044 1.70616 51.444 2.96998 53.2905 5.49763L51.0899 8.72038L50.8623 9.09953L50.5967 8.81517C50.5714 8.5624 50.5208 8.30964 50.4449 8.05687C50.3943 7.80411 50.2299 7.48815 49.9517 7.109C49.4205 6.50869 48.8514 6.09795 48.2444 5.87678C47.6626 5.65561 46.9671 5.54502 46.1577 5.54502C45.07 5.54502 44.1974 5.89257 43.5398 6.58768C42.9074 7.28278 42.5913 8.08847 42.5913 9.00474C42.5913 9.73144 42.7177 10.3791 42.9707 10.9479C43.2236 11.485 43.7168 12.0537 44.4504 12.654C45.2092 13.2543 46.3221 13.9494 47.7891 14.7393C49.3826 15.624 50.622 16.4929 51.5073 17.346C52.4178 18.1991 53.0502 19.1311 53.4043 20.1422C53.7837 21.1216 53.9734 22.2749 53.9734 23.6019C53.9734 25.0237 53.6825 26.3981 53.1008 27.7251C52.519 29.0205 51.6211 30.0948 50.407 30.9479C49.2182 31.8009 47.6626 32.2275 45.7403 32.2275Z" fill="white"/>
<path d="M60.8406 32.2275C58.893 32.2275 57.3754 31.6746 56.2878 30.5687C55.2254 29.4313 54.6943 27.9621 54.6943 26.1611C54.6943 23.7915 55.5416 21.8799 57.2363 20.4265C58.9309 18.9415 61.2453 18.1991 64.1793 18.1991C64.5082 18.1991 64.8749 18.2148 65.2796 18.2464C65.6843 18.2464 66.1143 18.2622 66.5696 18.2938C66.3925 16.2401 65.9373 14.8499 65.2037 14.1232C64.4702 13.3965 63.4585 13.0332 62.1685 13.0332C61.3591 13.0332 60.575 13.207 59.8162 13.5545C59.0827 13.9021 58.3618 14.5024 57.6536 15.3554L55.6428 12.5118C56.6039 11.3744 57.6536 10.5529 58.7918 10.0474C59.9553 9.54186 61.1441 9.2891 62.3582 9.2891C63.8505 9.2891 65.1911 9.58926 66.3799 10.1896C67.5687 10.7899 68.5046 11.8325 69.1875 13.3175C69.8704 14.7709 70.2119 16.8088 70.2119 19.4313V31.7062H66.2661V29.0047C65.6084 30.2686 64.799 31.1216 63.8379 31.564C62.902 32.0063 61.9029 32.2275 60.8406 32.2275ZM58.4883 25.6398C58.4883 26.7457 58.7665 27.5197 59.323 27.9621C59.9047 28.4044 60.6256 28.6256 61.4856 28.6256C63.0285 28.6256 64.2299 28.0569 65.0899 26.9194C65.9752 25.7504 66.4811 23.9968 66.6075 21.6588C66.2028 21.6272 65.7855 21.6114 65.3555 21.6114C64.9255 21.5798 64.5461 21.564 64.2173 21.564C62.2697 21.564 60.828 21.9273 59.8921 22.654C58.9562 23.3491 58.4883 24.3444 58.4883 25.6398Z" fill="white"/>
<path d="M80.2661 32.2275C78.2426 32.2275 76.6111 31.2006 75.3718 29.1469L74.575 31.7062H71.8433V0H75.9788V0.42654C75.827 0.616113 75.7385 0.821485 75.7132 1.04265C75.6879 1.26382 75.6753 1.64297 75.6753 2.18009V12.5592C76.1812 11.5482 76.8641 10.7425 77.7241 10.1422C78.6093 9.54186 79.5199 9.24171 80.4558 9.24171C82.5804 9.2733 84.3004 10.2212 85.6157 12.0853C86.9309 13.9494 87.5886 16.7299 87.5886 20.4265C87.5886 23.1122 87.2471 25.3239 86.5642 27.0616C85.8812 28.7994 84.9833 30.0948 83.8704 30.9479C82.7575 31.8009 81.556 32.2275 80.2661 32.2275ZM79.6211 28.436C80.3546 28.436 81.0375 28.1991 81.6699 27.7251C82.3022 27.2196 82.8081 26.4139 83.1875 25.3081C83.5922 24.2022 83.7945 22.7172 83.7945 20.8531C83.7945 18.2622 83.4278 16.3033 82.6943 14.9763C81.9607 13.6177 80.9616 12.9384 79.697 12.9384C78.4576 12.9384 77.4711 13.6335 76.7376 15.0237C76.0294 16.4139 75.6753 18.2938 75.6753 20.6635C75.6753 23.128 75.9788 25.0395 76.5859 26.3981C77.2182 27.7567 78.2299 28.436 79.6211 28.436Z" fill="white"/>
<path d="M96.0493 32.1801C94.4558 32.1801 93.0267 31.7062 91.762 30.7583C90.5226 29.7788 89.5362 28.436 88.8027 26.7299C88.0944 24.9921 87.7403 23.0016 87.7403 20.7583C87.7403 18.5466 88.0944 16.5877 88.8027 14.8815C89.5362 13.1438 90.5226 11.7852 91.762 10.8057C93.0267 9.79463 94.4558 9.2891 96.0493 9.2891C97.6175 9.2891 99.0213 9.79463 100.261 10.8057C101.525 11.7852 102.524 13.1438 103.258 14.8815C103.991 16.5877 104.358 18.5466 104.358 20.7583C104.358 23.0016 103.991 24.9763 103.258 26.6825C102.524 28.3886 101.525 29.7314 100.261 30.7109C99.0213 31.6904 97.6175 32.1801 96.0493 32.1801ZM96.0493 28.3412C97.3392 28.3412 98.4016 27.6303 99.2363 26.2085C100.071 24.7867 100.488 22.9542 100.488 20.7109C100.488 18.4044 100.071 16.5561 99.2363 15.1659C98.4016 13.7757 97.3392 13.0806 96.0493 13.0806C94.7593 13.0806 93.697 13.7757 92.8623 15.1659C92.0276 16.5561 91.6102 18.4044 91.6102 20.7109C91.6102 22.9542 92.0149 24.7867 92.8243 26.2085C93.659 27.6303 94.734 28.3412 96.0493 28.3412Z" fill="white"/>
<path d="M107.014 9.76303H110.922L110.884 13.5071C111.365 12.1801 112.085 11.1374 113.047 10.3791C114.008 9.62085 115.032 9.24171 116.12 9.24171C118.017 9.24171 119.598 10.0632 120.862 11.7062L119.269 15.5924L119.117 16.019L118.813 15.8294C118.738 15.5766 118.662 15.3239 118.586 15.0711C118.51 14.8183 118.32 14.5182 118.017 14.1706C117.258 13.5387 116.461 13.2227 115.627 13.2227C114.817 13.2227 114.046 13.4597 113.312 13.9336C112.579 14.4076 111.984 15.1659 111.529 16.2085C111.074 17.2196 110.846 18.5466 110.846 20.1896V31.7536H107.014V9.76303Z" fill="white"/>
<path d="M130.234 32.2275C128.539 32.2275 127.034 31.7852 125.719 30.9005C124.429 30.0158 123.404 28.7362 122.645 27.0616C121.912 25.3555 121.545 23.2859 121.545 20.8531C121.545 18.4202 121.912 16.3349 122.645 14.5972C123.379 12.8594 124.365 11.5324 125.605 10.6161C126.844 9.69984 128.235 9.24171 129.778 9.24171C131.119 9.24171 132.346 9.63665 133.458 10.4265C134.571 11.2164 135.457 12.4013 136.114 13.981C136.797 15.5292 137.139 17.4724 137.139 19.8104C137.139 20.5687 137.126 21.2638 137.101 21.8957H125.187C125.238 23.4123 125.516 24.6603 126.022 25.6398C126.528 26.6193 127.16 27.346 127.919 27.8199C128.703 28.2622 129.525 28.4834 130.385 28.4834C131.22 28.4834 131.991 28.3254 132.7 28.0095C133.433 27.6619 134.091 27.0932 134.673 26.3033L136.645 28.7204C135.836 29.921 134.888 30.8057 133.8 31.3744C132.738 31.9431 131.549 32.2275 130.234 32.2275ZM125.263 18.3412H133.458C133.458 16.6035 133.104 15.2607 132.396 14.3128C131.713 13.3649 130.777 12.891 129.589 12.891C128.526 12.891 127.59 13.3333 126.781 14.218C125.972 15.1027 125.466 16.4771 125.263 18.3412Z" fill="white"/>
<path d="M146.396 32.2275C144.828 32.2275 143.374 31.9589 142.033 31.4218C140.718 30.8531 139.542 29.9684 138.505 28.7678L140.25 24.7867L140.477 24.3602L140.743 24.5498C140.794 24.8025 140.857 25.0711 140.933 25.3555C141.009 25.6082 141.186 25.9242 141.464 26.3033C142.071 26.9668 142.767 27.504 143.551 27.9147C144.335 28.2938 145.296 28.4834 146.434 28.4834C147.598 28.4834 148.508 28.2306 149.166 27.7251C149.823 27.2196 150.152 26.5403 150.152 25.6872C150.152 24.8973 149.823 24.2654 149.166 23.7915C148.533 23.2859 147.458 22.7488 145.941 22.1801C143.993 21.485 142.438 20.6003 141.274 19.5261C140.111 18.4518 139.529 17.0458 139.529 15.3081C139.529 13.5703 140.123 12.1327 141.312 10.9953C142.526 9.82622 144.183 9.24171 146.282 9.24171C147.825 9.24171 149.153 9.52607 150.266 10.0948C151.404 10.6635 152.429 11.5166 153.339 12.654L151.177 16.2559L150.911 15.9716C150.886 15.7188 150.823 15.4818 150.721 15.2607C150.645 15.0395 150.468 14.7551 150.19 14.4076C149.634 13.9021 149.014 13.5229 148.331 13.2701C147.673 13.0174 147.016 12.891 146.358 12.891C145.448 12.891 144.664 13.0806 144.006 13.4597C143.348 13.8389 143.019 14.4076 143.019 15.1659C143.019 15.861 143.348 16.4771 144.006 17.0142C144.664 17.5197 145.852 18.0569 147.572 18.6256C149.722 19.3523 151.265 20.237 152.201 21.2796C153.162 22.3223 153.643 23.6651 153.643 25.3081C153.643 26.5403 153.365 27.6935 152.808 28.7678C152.252 29.8104 151.43 30.6477 150.342 31.2796C149.28 31.9115 147.964 32.2275 146.396 32.2275Z" fill="white"/>
<path d="M178.683 32.2275C177.444 32.2275 176.268 31.8009 175.155 30.9479C174.042 30.0948 173.144 28.8152 172.461 27.109C171.778 25.3712 171.437 23.207 171.437 20.6161C171.437 18.0253 171.778 15.8926 172.461 14.218C173.144 12.5434 174.042 11.2954 175.155 10.4739C176.268 9.65245 177.469 9.24171 178.759 9.24171C179.771 9.24171 180.669 9.49447 181.453 10C182.237 10.4739 182.844 11.2164 183.274 12.2275V0H187.296V0.42654C187.169 0.616113 187.081 0.821485 187.03 1.04265C187.005 1.26382 186.992 1.64297 186.992 2.18009V28.6256C186.992 29.1311 187.005 29.6367 187.03 30.1422C187.081 30.6477 187.195 31.169 187.372 31.7062H183.654C183.477 31.169 183.375 30.7109 183.35 30.3318C183.325 29.9526 183.312 29.5103 183.312 29.0047C182.25 31.1532 180.707 32.2275 178.683 32.2275ZM179.328 28.3412C180.669 28.3412 181.643 27.6619 182.25 26.3033C182.857 24.9447 183.16 23.0648 183.16 20.6635C183.16 18.2306 182.844 16.3349 182.212 14.9763C181.58 13.6177 180.568 12.9384 179.177 12.9384C177.861 12.9384 176.85 13.6177 176.141 14.9763C175.458 16.3033 175.117 18.1043 175.117 20.3791C175.117 22.8436 175.509 24.7867 176.293 26.2085C177.077 27.6303 178.089 28.3412 179.328 28.3412Z" fill="white"/>
<path d="M196.212 32.1801C194.618 32.1801 193.189 31.7062 191.925 30.7583C190.685 29.7788 189.699 28.436 188.965 26.7299C188.257 24.9921 187.903 23.0016 187.903 20.7583C187.903 18.5466 188.257 16.5877 188.965 14.8815C189.699 13.1438 190.685 11.7852 191.925 10.8057C193.189 9.79463 194.618 9.2891 196.212 9.2891C197.78 9.2891 199.184 9.79463 200.423 10.8057C201.688 11.7852 202.687 13.1438 203.421 14.8815C204.154 16.5877 204.521 18.5466 204.521 20.7583C204.521 23.0016 204.154 24.9763 203.421 26.6825C202.687 28.3886 201.688 29.7314 200.423 30.7109C199.184 31.6904 197.78 32.1801 196.212 32.1801ZM196.212 28.3412C197.502 28.3412 198.564 27.6303 199.399 26.2085C200.234 24.7867 200.651 22.9542 200.651 20.7109C200.651 18.4044 200.234 16.5561 199.399 15.1659C198.564 13.7757 197.502 13.0806 196.212 13.0806C194.922 13.0806 193.86 13.7757 193.025 15.1659C192.19 16.5561 191.773 18.4044 191.773 20.7109C191.773 22.9542 192.178 24.7867 192.987 26.2085C193.822 27.6303 194.897 28.3412 196.212 28.3412Z" fill="white"/>
<path d="M221.67 31.7062V2.18009H228.727C231.509 2.18009 233.558 2.8594 234.873 4.21801C236.214 5.57662 236.884 7.34597 236.884 9.52607C236.884 10.8215 236.593 12.1011 236.011 13.3649C235.43 14.5972 234.582 15.466 233.469 15.9716C234.785 16.6035 235.834 17.5987 236.618 18.9573C237.428 20.2844 237.832 21.722 237.832 23.2701C237.832 25.7978 237.074 27.8357 235.556 29.3839C234.064 30.9321 231.775 31.7062 228.689 31.7062H221.67ZM225.388 14.1232H228.347C230.169 14.1232 231.421 13.7441 232.103 12.9858C232.786 12.1959 233.128 11.2006 233.128 10C233.128 8.83096 232.786 7.8831 232.103 7.1564C231.421 6.3981 230.308 6.01896 228.765 6.01896H225.388V14.1232ZM225.388 27.7725H229.106C230.573 27.7725 231.737 27.3934 232.597 26.6351C233.457 25.8768 233.887 24.6919 233.887 23.0806C233.887 21.564 233.482 20.3318 232.673 19.3839C231.888 18.4044 230.497 17.9147 228.499 17.9147H225.388V27.7725Z" fill="white"/>
<path d="M244.965 32.2275C243.195 32.2275 241.728 31.4534 240.564 29.9052C239.426 28.357 238.857 25.8768 238.857 22.4645L238.895 9.76303H242.613V22.4645C242.613 24.6761 242.916 26.2401 243.524 27.1564C244.156 28.0411 244.902 28.4834 245.762 28.4834C246.875 28.4834 247.811 27.9621 248.57 26.9194C249.328 25.8768 249.708 24.2812 249.708 22.1327V9.76303H253.502V28.2464C253.502 28.8784 253.514 29.4787 253.54 30.0474C253.565 30.6161 253.679 31.169 253.881 31.7062H250.353C250.176 31.2006 250.062 30.6951 250.011 30.1896C249.986 29.684 249.973 29.1785 249.973 28.673C249.442 29.842 248.721 30.7267 247.811 31.327C246.926 31.9273 245.977 32.2275 244.965 32.2275Z" fill="white"/>
<path d="M262.152 32.2275C260.913 32.2275 259.737 31.8009 258.624 30.9479C257.511 30.0948 256.613 28.8152 255.93 27.109C255.247 25.3712 254.906 23.207 254.906 20.6161C254.906 18.0253 255.247 15.8926 255.93 14.218C256.613 12.5434 257.511 11.2954 258.624 10.4739C259.737 9.65245 260.938 9.24171 262.228 9.24171C263.24 9.24171 264.138 9.49447 264.922 10C265.706 10.4739 266.313 11.2164 266.743 12.2275V0H270.765V0.42654C270.638 0.616113 270.55 0.821485 270.499 1.04265C270.474 1.26382 270.461 1.64297 270.461 2.18009V28.6256C270.461 29.1311 270.474 29.6367 270.499 30.1422C270.55 30.6477 270.664 31.169 270.841 31.7062H267.122C266.945 31.169 266.844 30.7109 266.819 30.3318C266.794 29.9526 266.781 29.5103 266.781 29.0047C265.719 31.1532 264.176 32.2275 262.152 32.2275ZM262.797 28.3412C264.138 28.3412 265.112 27.6619 265.719 26.3033C266.326 24.9447 266.629 23.0648 266.629 20.6635C266.629 18.2306 266.313 16.3349 265.681 14.9763C265.048 13.6177 264.037 12.9384 262.645 12.9384C261.33 12.9384 260.318 13.6177 259.61 14.9763C258.927 16.3033 258.586 18.1043 258.586 20.3791C258.586 22.8436 258.978 24.7867 259.762 26.2085C260.546 27.6303 261.558 28.3412 262.797 28.3412Z" fill="white"/>
<path d="M278.846 32.2275C277.607 32.2275 276.43 31.8009 275.318 30.9479C274.205 30.0948 273.307 28.8152 272.624 27.109C271.941 25.3712 271.599 23.207 271.599 20.6161C271.599 18.0253 271.941 15.8926 272.624 14.218C273.307 12.5434 274.205 11.2954 275.318 10.4739C276.43 9.65245 277.632 9.24171 278.922 9.24171C279.934 9.24171 280.832 9.49447 281.616 10C282.4 10.4739 283.007 11.2164 283.437 12.2275V0H287.458V0.42654C287.332 0.616113 287.243 0.821485 287.193 1.04265C287.168 1.26382 287.155 1.64297 287.155 2.18009V28.6256C287.155 29.1311 287.168 29.6367 287.193 30.1422C287.243 30.6477 287.357 31.169 287.534 31.7062H283.816C283.639 31.169 283.538 30.7109 283.513 30.3318C283.487 29.9526 283.475 29.5103 283.475 29.0047C282.412 31.1532 280.869 32.2275 278.846 32.2275ZM279.491 28.3412C280.832 28.3412 281.805 27.6619 282.412 26.3033C283.019 24.9447 283.323 23.0648 283.323 20.6635C283.323 18.2306 283.007 16.3349 282.374 14.9763C281.742 13.6177 280.73 12.9384 279.339 12.9384C278.024 12.9384 277.012 13.6177 276.304 14.9763C275.621 16.3033 275.28 18.1043 275.28 20.3791C275.28 22.8436 275.672 24.7867 276.456 26.2085C277.24 27.6303 278.252 28.3412 279.491 28.3412Z" fill="white"/>
<path d="M291.67 40C290.835 40 290.089 39.8262 289.431 39.4787C288.774 39.1627 288.141 38.673 287.534 38.0095L288.938 34.7867L289.128 34.4076L289.393 34.5972C289.469 34.8499 289.558 35.0711 289.659 35.2607C289.786 35.4502 290.026 35.703 290.38 36.019C290.785 36.2085 291.227 36.3033 291.708 36.3033C292.568 36.3033 293.238 35.8926 293.719 35.0711C294.225 34.2812 294.718 33.0174 295.198 31.2796L288.255 9.76303H292.087L296.868 25.2607L298.879 17.8673C299.258 16.5087 299.587 15.1659 299.865 13.8389C300.169 12.5118 300.358 11.1532 300.434 9.76303H304C303.899 11.2164 303.634 12.7172 303.204 14.2654C302.799 15.8136 302.382 17.3144 301.952 18.7678L297.589 33.7915C296.931 36.0979 296.109 37.7093 295.122 38.6256C294.136 39.5419 292.985 40 291.67 40Z" fill="white"/>
<path d="M6.00008 20C7.84103 20 9.33341 18.1345 9.33341 15.8334C9.33341 13.5322 7.84103 11.6667 6.00008 11.6667C4.15913 11.6667 2.66675 13.5322 2.66675 15.8334C2.66675 18.1345 4.15913 20 6.00008 20Z" fill="white"/>
<path d="M12.0001 13.3335C13.841 13.3335 15.3334 11.468 15.3334 9.16679C15.3334 6.8656 13.841 5.00012 12.0001 5.00012C10.1591 5.00012 8.66675 6.8656 8.66675 9.16679C8.66675 11.468 10.1591 13.3335 12.0001 13.3335Z" fill="white"/>
<path d="M19.9989 13.3335C21.8398 13.3335 23.3322 11.468 23.3322 9.16679C23.3322 6.8656 21.8398 5.00012 19.9989 5.00012C18.1579 5.00012 16.6655 6.8656 16.6655 9.16679C16.6655 11.468 18.1579 13.3335 19.9989 13.3335Z" fill="white"/>
<path d="M26.0003 20C27.8413 20 29.3337 18.1345 29.3337 15.8334C29.3337 13.5322 27.8413 11.6667 26.0003 11.6667C24.1594 11.6667 22.667 13.5322 22.667 15.8334C22.667 18.1345 24.1594 20 26.0003 20Z" fill="white"/>
<path d="M23.1198 24.7668C21.9598 23.0668 20.9865 21.6168 19.8131 19.9168C19.1998 19.0168 18.4131 18.1168 17.4798 17.7168C17.3331 17.6501 17.1865 17.6001 17.0398 17.5668C16.7065 17.5001 16.3465 17.5001 15.9998 17.5001C15.6531 17.5001 15.2931 17.5001 14.9465 17.5835C14.7998 17.6168 14.6531 17.6668 14.5065 17.7335C13.5731 18.1335 12.7998 19.0335 12.1731 19.9335C11.0131 21.6335 10.0398 23.0835 8.86645 24.7835C7.11978 26.9668 4.97312 29.3835 5.37312 32.7668C5.75978 34.4668 6.73312 36.1501 8.47978 36.6335C9.45312 36.8835 12.5598 35.9001 15.8665 35.9001H16.1065C19.4131 35.9001 22.5198 36.8668 23.4931 36.6335C25.2398 36.1501 26.2131 34.4501 26.5998 32.7668C27.0131 29.3668 24.8665 26.9501 23.1198 24.7668Z" fill="white"/>
<path d="M316 19.9999C317.841 19.9999 319.333 18.1344 319.333 15.8332C319.333 13.532 317.841 11.6666 316 11.6666C314.159 11.6666 312.667 13.532 312.667 15.8332C312.667 18.1344 314.159 19.9999 316 19.9999Z" fill="white"/>
<path d="M322 13.3333C323.841 13.3333 325.333 11.4679 325.333 9.16667C325.333 6.86548 323.841 5 322 5C320.159 5 318.667 6.86548 318.667 9.16667C318.667 11.4679 320.159 13.3333 322 13.3333Z" fill="white"/>
<path d="M330.001 13.3333C331.842 13.3333 333.334 11.4679 333.334 9.16667C333.334 6.86548 331.842 5 330.001 5C328.16 5 326.667 6.86548 326.667 9.16667C326.667 11.4679 328.16 13.3333 330.001 13.3333Z" fill="white"/>
<path d="M336 19.9999C337.841 19.9999 339.333 18.1344 339.333 15.8332C339.333 13.532 337.841 11.6666 336 11.6666C334.159 11.6666 332.667 13.532 332.667 15.8332C332.667 18.1344 334.159 19.9999 336 19.9999Z" fill="white"/>
<path d="M333.121 24.7667C331.961 23.0667 330.987 21.6167 329.814 19.9167C329.201 19.0167 328.414 18.1167 327.481 17.7167C327.334 17.65 327.187 17.6 327.041 17.5667C326.707 17.5 326.347 17.5 326.001 17.5C325.654 17.5 325.294 17.5 324.947 17.5833C324.801 17.6167 324.654 17.6667 324.507 17.7333C323.574 18.1333 322.801 19.0333 322.174 19.9333C321.014 21.6333 320.041 23.0833 318.867 24.7833C317.121 26.9667 314.974 29.3833 315.374 32.7667C315.761 34.4667 316.734 36.15 318.481 36.6333C319.454 36.8833 322.561 35.9 325.867 35.9H326.107C329.414 35.9 332.521 36.8667 333.494 36.6333C335.241 36.15 336.214 34.45 336.601 32.7667C337.014 29.3667 334.867 26.95 333.121 24.7667Z" fill="white"/>
</svg>
