<svg width="128" height="127" viewBox="0 0 128 127" fill="none" xmlns="http://www.w3.org/2000/svg">
<path d="M75.9054 43.3555C77.0386 42.9708 78.0068 42.2391 78.6841 41.2549C79.3619 40.2714 79.7161 39.0817 79.7015 37.8413L79.7743 29.8834C79.7561 27.7761 78.9419 25.7007 77.499 24.084C76.0556 22.4668 74.0947 21.4328 72.0193 21.1944L64.1072 20.2664C62.449 20.0779 60.8326 20.5759 59.627 21.6466C58.4207 22.7168 57.7276 24.2699 57.7039 25.9507C57.6814 27.6316 58.3307 29.2979 59.5041 30.5713C61.2467 32.5237 63.4865 33.1775 65.314 35.2516C67.1421 37.3252 67.7657 39.6218 69.3331 41.5586L69.3337 41.5581C70.1744 42.4771 71.2489 43.1392 72.4191 43.4586C73.59 43.7787 74.8037 43.7431 75.9057 43.3557L75.9054 43.3555Z" fill="#3E8923"/>
<path d="M92.1729 31.6963C88.6421 26.1172 78.4444 32.3935 81.5074 37.5507C85.0877 43.1346 95.2232 36.8405 92.1729 31.6963Z" fill="#3E8923"/>
<path d="M62.7833 14.6145C62.7275 20.0666 68.9929 20.7472 71.8309 16.3523C73.7676 13.523 73.6011 10.0651 71.4528 8.48169C67.4738 5.7235 62.7888 10.6269 62.7833 14.6145Z" fill="#3E8923"/>
<path d="M73.9599 19.928C75.7758 21.9627 78.9886 22.0317 81.6077 20.225C76.4732 26.5072 83.7171 32.8967 89.6609 27.5476C95.6047 22.1986 90.0137 14.2072 83.284 18.7023C88.419 12.3953 81.162 6.0164 75.2308 11.3796C72.4749 13.883 71.9106 17.6319 73.9599 19.928L73.9599 19.928Z" fill="#3E8923"/>
<path d="M88.3419 87.9889C89.4756 87.6048 90.4444 86.8725 91.1211 85.8889C91.7983 84.9047 92.1525 83.715 92.138 82.4746L92.0502 74.4393C92.032 72.332 91.2178 70.2566 89.7744 68.6393C88.3315 67.0227 86.3705 65.9887 84.2952 65.7503L76.3831 64.8223C74.7243 64.6343 73.1085 65.1318 71.9023 66.203C70.696 67.2732 70.0029 68.8252 69.9798 70.5066C69.9566 72.188 70.606 73.8544 71.78 75.1272C73.5226 77.0796 75.7744 77.7469 77.5899 79.8075C79.4059 81.8676 80.054 84.1664 81.6089 86.1146C82.4556 87.0781 83.5547 87.7746 84.7592 88.1095C85.9633 88.445 87.2138 88.4023 88.3419 87.9889Z" fill="#3E8923"/>
<path d="M93.865 78.0263C91.5314 82.8841 97.2415 86.0359 101.625 83.423C108.682 79.5021 103.931 71.3717 96.8397 75.1754L96.8392 75.1748C95.587 75.8078 94.5575 76.7952 93.865 78.0264L93.865 78.0263Z" fill="#3E8923"/>
<path d="M76.2651 62.5833C78.412 64.9888 81.9929 63.9766 84.1203 60.9239C87.2557 56.7068 84.6433 50.7914 79.6245 52.5622C76.1399 53.7607 73.5732 59.8514 76.2651 62.5833Z" fill="#3E8923"/>
<path d="M86.2968 64.5538C88.1253 66.6026 91.3255 66.6574 93.9577 64.8389C88.8352 71.1346 96.0797 77.5248 102.011 72.1615C107.942 66.7983 102.364 58.8211 95.6339 63.3162C100.768 57.034 93.5246 50.6444 87.5808 55.9935C84.8242 58.4975 84.2602 62.2718 86.2968 64.5537L86.2968 64.5538Z" fill="#3E8923"/>
<path d="M44.34 62.068C44.3219 59.9607 43.5076 57.8853 42.0647 56.2686C40.6213 54.6514 38.6604 53.6174 36.585 53.379L28.6729 52.451C27.0141 52.2629 25.3983 52.7604 24.1921 53.8317C22.9858 54.9019 22.2933 56.4545 22.2696 58.1353C22.2465 59.8167 22.8958 61.483 24.0698 62.7558C25.8124 64.7083 28.0522 65.3621 29.8797 67.4362C31.7078 69.5098 32.3314 71.8064 33.8863 73.7546C35.0272 75.0466 36.6 75.8528 38.2518 75.9917C39.9031 76.1311 41.4932 75.5912 42.6649 74.4936C43.8353 73.396 44.489 71.8342 44.4773 70.1589L44.34 62.068Z" fill="#3E8923"/>
<path d="M56.7516 63.8705C53.3177 58.5023 43.1564 64.0979 46.0861 69.7249C49.6545 75.2955 59.7639 69.0492 56.7516 63.8705Z" fill="#3E8923"/>
<path d="M47.8642 50.8748C52.9867 44.5791 45.7422 38.1889 39.811 43.5521C33.8799 48.9153 39.4461 56.879 46.1879 52.3975C41.0534 58.6797 48.2973 65.0692 54.2411 59.7201C60.1848 54.3711 54.5939 46.3797 47.8642 50.8748Z" fill="#3E8923"/>
<path d="M29.0825 50.6749C31.5649 52.5026 34.8319 50.8037 36.3343 48.4933C39.4697 44.2763 36.8322 38.358 31.8254 40.1435C28.1661 41.3774 25.4877 48.1163 29.0825 50.6749Z" fill="#3E8923"/>
<path d="M56.5656 106.671C56.5475 104.564 55.7332 102.488 54.2898 100.871C52.8469 99.2542 50.886 98.2202 48.8106 97.9818L40.9999 96.9616C39.3411 96.7736 37.7253 97.2711 36.5197 98.3418C35.3134 99.412 34.6197 100.965 34.5966 102.646C34.574 104.327 35.2228 105.994 36.3968 107.267C38.1394 109.219 40.3912 109.886 42.2067 111.947C44.0228 114.007 44.6708 116.306 46.2258 118.254C47.362 119.558 48.938 120.375 50.5947 120.518C52.2514 120.662 53.8484 120.12 55.0208 119.016C56.193 117.911 56.8407 116.339 56.8169 114.658L56.5656 106.671Z" fill="#3E8923"/>
<path d="M69.1012 108.485C66.14 103.259 55.3466 108.533 58.4353 114.365C61.7685 119.774 72.2339 113.927 69.1012 108.485Z" fill="#3E8923"/>
<path d="M60.2156 95.4908C65.3501 89.2086 58.1062 82.8191 52.1624 88.1682C46.2186 93.5172 51.8095 101.509 58.5393 97.0135C53.4168 103.309 60.6613 109.699 66.5925 104.336C72.5242 98.9736 66.9453 90.9958 60.2156 95.4908Z" fill="#3E8923"/>
<path d="M41.4337 95.3164C43.5825 96.8993 46.7623 95.9276 48.6729 93.1208C51.8083 88.9037 49.1834 82.9996 44.1771 84.7591C40.4536 86.0501 37.8394 92.7319 41.4337 95.3164Z" fill="#3E8923"/>
</svg>
