<svg width="120" height="121" viewBox="0 0 120 121" fill="none" xmlns="http://www.w3.org/2000/svg">
<path d="M77.4869 10.4665C77.0133 10.0381 76.5367 9.80191 75.8311 9.65402C75.2615 9.53205 74.759 9.51413 74.148 9.58921C70.489 10.0488 66.5347 13.6811 65.5356 17.5112C65.3989 18.0328 65.3026 18.8354 65.3181 19.3246C65.3651 20.9312 66.2011 22.1658 67.567 22.6476C68.9696 23.1396 70.7809 22.8558 72.7111 21.8411C73.2061 21.5771 74.6053 20.5745 75.0212 20.1783C76.7624 18.5273 77.8935 16.7331 78.3767 14.8648C78.4949 14.3984 78.59 13.5827 78.5789 13.1227C78.5667 12.6959 78.4275 11.9724 78.2916 11.6405C78.1722 11.343 77.7075 10.667 77.4869 10.4665Z" fill="#74DF4C"/>
<path d="M85.5747 22.7935C84.7245 21.9725 83.3591 21.4625 81.7774 21.3701C79.7445 21.25 77.5472 21.7691 75.4981 22.8567C74.8454 23.2033 73.5327 24.1752 73.0622 24.6577C71.9925 25.7629 71.3838 26.8978 71.2661 28.0174C71.1602 28.98 71.4438 29.8854 72.0592 30.5672C73.5327 32.1849 76.5268 32.6556 79.6897 31.7656C82.3142 31.0274 84.5495 29.5212 85.7512 27.68C86.9228 25.884 86.8552 24.0236 85.5747 22.7935Z" fill="#74DF4C"/>
<path d="M62.4631 9.74263C61.3867 8.63243 59.8068 8.35783 58.0672 8.98318C57.0697 9.34496 55.9096 10.1406 55.0468 11.0578C53.0344 13.1894 51.9776 16.2413 52.4296 18.6091C52.6628 19.8203 53.2414 20.7747 54.0918 21.3361C55.3448 22.1645 56.9933 22.1063 58.7943 21.1673C59.1552 20.978 60.1214 20.2729 60.4618 19.9456C63.1925 17.35 64.3475 13.3596 63.1295 10.7489C62.986 10.4411 62.658 9.94805 62.4631 9.74263Z" fill="#74DF4C"/>
<path d="M78.8776 37.0673C77.876 36.1296 76.4079 35.5648 74.6913 35.4595C72.8266 35.3464 70.8346 35.8083 69.1656 36.739C68.7309 36.9822 67.878 37.6185 67.5316 37.9548C65.2048 40.2185 65.3743 43.08 67.9174 44.6031C69.2828 45.419 71.1034 45.7312 73.0469 45.4854C76.7291 45.023 79.7403 42.6816 80.0195 40.0581C80.1383 38.9516 79.719 37.8531 78.8776 37.0673Z" fill="#74DF4C"/>
<path d="M64.4606 27.438C62.6829 25.6664 58.9457 24.5229 54.4508 24.3729C50.9311 24.2575 47.6146 24.7865 45.4303 25.8151C44.9067 26.0628 44.0789 26.6531 43.8212 26.9617C43.4212 27.4437 43.2498 27.8887 43.2021 28.5448C43.1276 29.6376 43.3847 30.697 43.9965 31.8129C44.3153 32.3915 45.1178 33.4469 45.7052 34.0613C46.4953 34.8801 47.2204 35.5285 48.9196 36.9262C50.5606 38.2783 50.9893 38.6794 51.2959 39.1603C51.6844 39.7715 51.8743 40.3051 52.2874 41.9322C52.5836 43.0975 52.7786 43.7248 52.9948 44.2253C53.809 46.0882 55.2461 47.1069 57.6179 47.5038C58.3241 47.6235 58.6135 47.607 59.1378 47.4238C59.4369 47.3167 59.496 47.2828 60.0736 46.8613C60.5965 46.4796 60.7377 46.3627 60.9949 46.0822C62.5615 44.3918 63.9967 41.7171 64.9824 38.6472C66.1541 34.9966 66.3969 31.537 65.6322 29.3553C65.3541 28.5615 64.9958 27.9746 64.4606 27.438Z" fill="#74DF4C"/>
<path d="M104.16 48.9676C103.687 48.5392 103.21 48.303 102.504 48.1551C101.935 48.0332 101.432 48.0152 100.821 48.0903C97.1624 48.5499 93.208 52.1822 92.209 56.0123C92.0722 56.5339 91.9759 57.3365 91.9915 57.8257C92.0384 59.4323 92.8744 60.6669 94.2403 61.1487C95.6429 61.6407 97.4543 61.3569 99.3845 60.3422C99.8795 60.0782 101.279 59.0756 101.695 58.6794C103.436 57.0284 104.567 55.2342 105.05 53.3659C105.168 52.8995 105.263 52.0838 105.252 51.6238C105.24 51.197 105.101 50.4735 104.965 50.1416C104.846 49.8441 104.381 49.1681 104.16 48.9676Z" fill="#74DF4C"/>
<path d="M112.248 61.2946C111.398 60.4736 110.032 59.9637 108.451 59.8712C106.418 59.7511 104.221 60.2702 102.171 61.3578C101.519 61.7044 100.206 62.6763 99.7355 63.1588C98.6659 64.264 98.0571 65.3989 97.9394 66.5185C97.8335 67.4811 98.1172 68.3865 98.7326 69.0684C100.206 70.686 103.2 71.1568 106.363 70.2667C108.988 69.5285 111.223 68.0223 112.425 66.1811C113.596 64.3851 113.529 62.5247 112.248 61.2946Z" fill="#74DF4C"/>
<path d="M89.1365 48.2437C88.06 47.1335 86.4801 46.8589 84.7405 47.4843C83.7431 47.8461 82.583 48.6417 81.7202 49.5589C79.7078 51.6905 78.651 54.7424 79.103 57.1102C79.3362 58.3214 79.9148 59.2758 80.7651 59.8372C82.0182 60.6656 83.6666 60.6074 85.4677 59.6683C85.8285 59.4791 86.7947 58.774 87.1351 58.4467C89.8658 55.8511 91.0209 51.8607 89.8029 49.25C89.6593 48.9422 89.3314 48.4492 89.1365 48.2437Z" fill="#74DF4C"/>
<path d="M105.551 75.5684C104.549 74.6308 103.081 74.0659 101.365 73.9606C99.5 73.8475 97.508 74.3094 95.839 75.2401C95.4042 75.4833 94.5513 76.1196 94.2049 76.4559C91.8782 78.7196 92.0476 81.5811 94.5908 83.1042C95.9561 83.9201 97.7767 84.2323 99.7203 83.9865C103.402 83.5241 106.414 81.1827 106.693 78.5592C106.812 77.4527 106.392 76.3542 105.551 75.5684Z" fill="#74DF4C"/>
<path d="M91.1339 65.9391C89.3563 64.1675 85.619 63.0241 81.1241 62.874C77.6044 62.7586 74.288 63.2876 72.1037 64.3162C71.58 64.5639 70.7522 65.1542 70.4945 65.4628C70.0946 65.9448 69.9232 66.3898 69.8754 67.0459C69.8009 68.1387 70.058 69.1982 70.6698 70.314C70.9887 70.8926 71.7911 71.948 72.3786 72.5624C73.1686 73.3812 73.8937 74.0296 75.5929 75.4273C77.2339 76.7794 77.6626 77.1805 77.9692 77.6614C78.3577 78.2726 78.5477 78.8062 78.9608 80.4333C79.2569 81.5986 79.452 82.2259 79.6682 82.7264C80.4823 84.5893 81.9194 85.6081 84.2913 86.0049C84.9974 86.1247 85.2868 86.1082 85.8111 85.9249C86.1102 85.8178 86.1693 85.7839 86.747 85.3624C87.2698 84.9808 87.4111 84.8638 87.6682 84.5833C89.2349 82.8929 90.6701 80.2182 91.6557 77.1483C92.8274 73.4977 93.0703 70.0381 92.3055 67.8564C92.0275 67.0626 91.6692 66.4757 91.1339 65.9391Z" fill="#74DF4C"/>
<path d="M65.7916 75.7332C65.318 75.3048 64.8414 75.0686 64.1358 74.9208C63.5662 74.7988 63.0637 74.7809 62.4527 74.8559C58.7937 75.3155 54.8394 78.9478 53.8403 82.7779C53.7036 83.2995 53.6073 84.1021 53.6228 84.5914C53.6697 86.198 54.5058 87.4326 55.8717 87.9143C57.2743 88.4063 59.0856 88.1226 61.0158 87.1078C61.5108 86.8439 62.91 85.8412 63.3259 85.445C65.0671 83.7941 66.1982 81.9998 66.6814 80.1315C66.7995 79.6652 66.8947 78.8494 66.8836 78.3894C66.8714 77.9626 66.7322 77.2392 66.5963 76.9073C66.4769 76.6097 66.0122 75.9337 65.7916 75.7332Z" fill="#74DF4C"/>
<path d="M73.8794 88.0602C73.0292 87.2392 71.6638 86.7293 70.082 86.6369C68.0492 86.5167 65.8518 87.0358 63.8028 88.1234C63.1501 88.47 61.8374 89.442 61.3669 89.9244C60.2972 91.0296 59.6885 92.1645 59.5708 93.2841C59.4649 94.2467 59.7485 95.1521 60.3639 95.834C61.8374 97.4516 64.8315 97.9224 67.9944 97.0323C70.6189 96.2942 72.8542 94.7879 74.0559 92.9468C75.2275 91.1507 75.1599 89.2903 73.8794 88.0602Z" fill="#74DF4C"/>
<path d="M50.7678 75.0094C49.6914 73.8992 48.1115 73.6246 46.3718 74.2499C45.3744 74.6117 44.2143 75.4074 43.3515 76.3245C41.3391 78.4561 40.2823 81.508 40.7343 83.8759C40.9675 85.087 41.5461 86.0415 42.3965 86.6028C43.6495 87.4312 45.2979 87.373 47.099 86.434C47.4599 86.2448 48.4261 85.5396 48.7664 85.2124C51.4971 82.6168 52.6522 78.6263 51.4342 76.0156C51.2907 75.7078 50.9627 75.2148 50.7678 75.0094Z" fill="#74DF4C"/>
<path d="M67.1823 102.334C66.1806 101.396 64.7126 100.832 62.996 100.726C61.1313 100.613 59.1393 101.075 57.4703 102.006C57.0355 102.249 56.1827 102.885 55.8363 103.222C53.5095 105.485 53.679 108.347 56.2221 109.87C57.5875 110.686 59.4081 110.998 61.3516 110.752C65.0338 110.29 68.045 107.948 68.3242 105.325C68.443 104.218 68.0237 103.12 67.1823 102.334Z" fill="#74DF4C"/>
<path d="M52.7652 92.7048C50.9876 90.9331 47.2504 89.7897 42.7555 89.6396C39.2358 89.5242 35.9193 90.0532 33.735 91.0818C33.2114 91.3296 32.3835 91.9199 32.1259 92.2285C31.7259 92.7104 31.5545 93.1554 31.5068 93.8115C31.4323 94.9043 31.6894 95.9638 32.3012 97.0796C32.62 97.6582 33.4225 98.7137 34.0099 99.328C34.8 100.147 35.5251 100.795 37.2243 102.193C38.8653 103.545 39.294 103.946 39.6006 104.427C39.9891 105.038 40.179 105.572 40.5921 107.199C40.8883 108.364 41.0833 108.992 41.2995 109.492C42.1137 111.355 43.5508 112.374 45.9226 112.771C46.6288 112.89 46.9182 112.874 47.4425 112.69C47.7416 112.583 47.8007 112.55 48.3783 112.128C48.9012 111.746 49.0424 111.629 49.2996 111.349C50.8662 109.659 52.3014 106.984 53.2871 103.914C54.4587 100.263 54.7016 96.8037 53.9369 94.622C53.6588 93.8282 53.3005 93.2413 52.7652 92.7048Z" fill="#74DF4C"/>
<path d="M39.7022 38.0388C39.2286 37.6104 38.752 37.3742 38.0465 37.2263C37.4769 37.1043 36.9743 37.0864 36.3634 37.1615C32.7044 37.621 28.75 41.2534 27.7509 45.0834C27.6142 45.605 27.5179 46.4077 27.5335 46.8969C27.5804 48.5035 28.4164 49.7381 29.7823 50.2198C31.1849 50.7118 32.9963 50.4281 34.9265 49.4134C35.4215 49.1494 36.8207 48.1468 37.2365 47.7505C38.9778 46.0996 40.1088 44.3054 40.592 42.4371C40.7102 41.9707 40.8054 41.155 40.7942 40.695C40.7821 40.2681 40.6428 39.5447 40.5069 39.2128C40.3876 38.9152 39.9229 38.2393 39.7022 38.0388Z" fill="#74DF4C"/>
<path d="M47.79 50.3658C46.9399 49.5447 45.5745 49.0348 43.9927 48.9424C41.9598 48.8223 39.7625 49.3414 37.7135 50.429C37.0607 50.7756 35.7481 51.7475 35.2775 52.23C34.2079 53.3352 33.5991 54.4701 33.4814 55.5896C33.3755 56.5523 33.6592 57.4577 34.2746 58.1395C35.748 59.7572 38.7421 60.2279 41.9051 59.3378C44.5295 58.5997 46.7648 57.0935 47.9665 55.2523C49.1381 53.4562 49.0705 51.5959 47.79 50.3658Z" fill="#74DF4C"/>
<path d="M24.6785 37.3149C23.602 36.2047 22.0221 35.9301 20.2825 36.5554C19.2851 36.9172 18.125 37.7129 17.2621 38.63C15.2498 40.7616 14.193 43.8135 14.645 46.1814C14.8782 47.3926 15.4567 48.347 16.3071 48.9084C17.5601 49.7367 19.2086 49.6786 21.0097 48.7395C21.3705 48.5503 22.3367 47.8451 22.6771 47.5179C25.4078 44.9223 26.5629 40.9319 25.3448 38.3211C25.2013 38.0133 24.8734 37.5203 24.6785 37.3149Z" fill="#74DF4C"/>
<path d="M41.0929 64.6396C40.0913 63.7019 38.6233 63.1371 36.9066 63.0318C35.0419 62.9187 33.05 63.3806 31.381 64.3113C30.9462 64.5544 30.0933 65.1908 29.7469 65.5271C27.4202 67.7908 27.5896 70.6523 30.1328 72.1753C31.4981 72.9913 33.3187 73.3034 35.2623 73.0577C38.9444 72.5952 41.9556 70.2538 42.2348 67.6304C42.3537 66.5239 41.9343 65.4254 41.0929 64.6396Z" fill="#74DF4C"/>
<path d="M26.6759 55.0103C24.8983 53.2387 21.161 52.0952 16.6661 51.9452C13.1464 51.8298 9.82997 52.3588 7.64565 53.3874C7.12203 53.6351 6.29419 54.2254 6.0365 54.534C5.63658 55.016 5.46516 55.461 5.41741 56.117C5.34293 57.2099 5.60001 58.2693 6.21183 59.3851C6.53065 59.9637 7.33312 61.0192 7.92058 61.6336C8.71061 62.4524 9.43571 63.1007 11.1349 64.4985C12.7759 65.8506 13.2046 66.2516 13.5112 66.7325C13.8997 67.3438 14.0897 67.8774 14.5028 69.5044C14.7989 70.6698 14.994 71.2971 15.2102 71.7976C16.0243 73.6605 17.4614 74.6792 19.8333 75.0761C20.5394 75.1958 20.8288 75.1793 21.3531 74.996C21.6522 74.889 21.7114 74.8551 22.289 74.4335C22.8118 74.0519 22.9531 73.9349 23.2102 73.6545C24.7769 71.9641 26.2121 69.2893 27.1977 66.2195C28.3694 62.5688 28.6123 59.1093 27.8475 56.9275C27.5695 56.1337 27.2112 55.5468 26.6759 55.0103Z" fill="#74DF4C"/>
</svg>
